<?xml version="1.0" encoding="utf-8"?>
<!-- Generator: Adobe Illustrator 26.0.2, SVG Export Plug-In . SVG Version: 6.00 Build 0)  -->
<svg version="1.1" id="Layer_1" xmlns="http://www.w3.org/2000/svg" xmlns:xlink="http://www.w3.org/1999/xlink" x="0px" y="0px"
	 viewBox="0 0 485.91 191.8" style="enable-background:new 0 0 485.91 191.8;" xml:space="preserve">
<style type="text/css">
	.st0{fill:#FEC40E;stroke:#051E3C;stroke-miterlimit:10;}
	.st1{fill:#1A3765;stroke:#051E3C;stroke-miterlimit:10;}
</style>
<g>
	<path class="st0" d="M360.45,117.54c0,24.72-20.03,44.75-44.75,44.75H60.38c-22.91,0-41.81-17.22-44.43-39.43
		c-0.21-1.74-0.32-3.52-0.32-5.32c0-1.19,0.05-2.37,0.14-3.54c1.81-23.06,21.09-41.21,44.61-41.21H315.7
		C340.42,72.79,360.45,92.83,360.45,117.54z"/>
	<ellipse class="st0" cx="6.79" cy="106.14" rx="1.77" ry="12.41"/>
	<ellipse class="st0" cx="6.79" cy="130.83" rx="1.77" ry="12.41"/>
	<path class="st1" d="M15.95,122.86H4.93c-2.44,0-4.43-1.99-4.43-4.43c0-1.22,0.5-2.32,1.3-3.13c0.8-0.8,1.91-1.3,3.13-1.3h10.84
		c-0.09,1.17-0.14,2.35-0.14,3.54C15.63,119.34,15.74,121.12,15.95,122.86z"/>
	<path class="st0" d="M253.11,72.79h-95.22c0-17.53,14.21-31.74,31.74-31.74h31.74C238.9,41.05,253.11,55.26,253.11,72.79z"/>
	<rect x="194.49" y="0.5" class="st1" width="2.07" height="40.55"/>
	<path class="st1" d="M228.97,19.37v6.69c-8.27,0-14.98,6.71-14.98,14.99h-6.69C207.3,29.08,217,19.37,228.97,19.37z"/>
	<rect x="228.97" y="16.38" class="st0" width="3.03" height="12.41"/>
</g>
<g>
	<path class="st0" d="M422.61,131.21c0,24.72-20.03,44.75-44.75,44.75H122.54c-22.91,0-41.81-17.22-44.43-39.43
		c-0.21-1.74-0.32-3.52-0.32-5.32c0-1.19,0.05-2.37,0.14-3.54c1.81-23.06,21.09-41.21,44.61-41.21h255.32
		C402.58,86.46,422.61,106.5,422.61,131.21z"/>
	<ellipse class="st0" cx="68.95" cy="119.81" rx="1.77" ry="12.41"/>
	<ellipse class="st0" cx="68.95" cy="144.5" rx="1.77" ry="12.41"/>
	<path class="st1" d="M78.11,136.53H67.09c-2.44,0-4.43-1.99-4.43-4.43c0-1.22,0.5-2.32,1.3-3.13c0.8-0.8,1.91-1.3,3.13-1.3h10.84
		c-0.09,1.17-0.14,2.35-0.14,3.54C77.79,133.01,77.9,134.79,78.11,136.53z"/>
	<path class="st0" d="M315.27,86.46h-95.22c0-17.53,14.21-31.74,31.74-31.74h31.74C301.06,54.72,315.27,68.93,315.27,86.46z"/>
	<rect x="256.65" y="14.17" class="st1" width="2.07" height="40.55"/>
	<path class="st1" d="M291.13,33.04v6.69c-8.27,0-14.98,6.71-14.98,14.99h-6.69C269.46,42.75,279.16,33.04,291.13,33.04z"/>
	<rect x="291.13" y="30.05" class="st0" width="3.03" height="12.41"/>
</g>
<g>
	<path class="st0" d="M485.41,146.55c0,24.72-20.03,44.75-44.75,44.75H185.34c-22.91,0-41.81-17.22-44.43-39.43
		c-0.21-1.74-0.32-3.52-0.32-5.32c0-1.19,0.05-2.37,0.14-3.54c1.81-23.06,21.09-41.21,44.61-41.21h255.32
		C465.38,101.8,485.41,121.84,485.41,146.55z"/>
	<ellipse class="st0" cx="131.75" cy="135.16" rx="1.77" ry="12.41"/>
	<ellipse class="st0" cx="131.75" cy="159.85" rx="1.77" ry="12.41"/>
	<path class="st1" d="M140.91,151.87h-11.02c-2.44,0-4.43-1.99-4.43-4.43c0-1.22,0.5-2.32,1.3-3.13c0.8-0.8,1.91-1.3,3.13-1.3h10.84
		c-0.09,1.17-0.14,2.35-0.14,3.54C140.59,148.35,140.7,150.13,140.91,151.87z"/>
	<path class="st0" d="M378.07,101.8h-95.22c0-17.53,14.21-31.74,31.74-31.74h31.74C363.86,70.06,378.07,84.27,378.07,101.8z"/>
	<rect x="319.45" y="29.52" class="st1" width="2.07" height="40.55"/>
	<path class="st1" d="M353.93,48.38v6.69c-8.27,0-14.98,6.71-14.98,14.99h-6.69C332.26,58.09,341.96,48.38,353.93,48.38z"/>
	<rect x="353.93" y="45.4" class="st0" width="3.03" height="12.41"/>
</g>
</svg>
